<?xml version="1.0" standalone="no"?>
<!DOCTYPE svg PUBLIC "-//W3C//DTD SVG 20010904//EN"
 "http://www.w3.org/TR/2001/REC-SVG-20010904/DTD/svg10.dtd">
<svg version="1.0" xmlns="http://www.w3.org/2000/svg"
 width="185.000000pt" height="52.000000pt" viewBox="0 0 185.000000 52.000000"
 preserveAspectRatio="xMidYMid meet">

<g transform="translate(0.000000,52.000000) scale(0.100000,-0.100000)"
fill="#000000" stroke="none">
<path d="M0 265 c0 -204 0 -205 23 -210 12 -3 78 -16 146 -29 l123 -23 103 21
c121 26 150 43 177 102 22 51 18 92 -12 119 -18 16 -18 20 -5 46 19 36 19 89
0 116 -27 38 -70 44 -172 24 -91 -17 -93 -17 -210 5 -65 13 -130 26 -145 28
l-28 6 0 -205z m478 64 c4 -32 -11 -45 -61 -54 l-38 -7 3 38 c3 34 7 40 33 45
47 10 60 6 63 -22z m17 -140 c16 -24 -5 -58 -43 -68 -65 -19 -72 -16 -72 28 0
33 4 40 23 44 44 8 86 7 92 -4z"/>
<path d="M1100 270 c0 -73 3 -90 15 -90 8 0 15 9 15 19 0 30 16 33 30 6 7 -14
22 -25 32 -25 17 0 17 2 -4 39 -21 37 -22 40 -5 58 21 24 22 33 2 33 -8 0 -20
-9 -27 -20 -20 -31 -28 -24 -28 25 0 33 -4 45 -15 45 -12 0 -15 -17 -15 -90z"/>
<path d="M680 265 l0 -85 41 0 c22 0 49 5 60 10 21 12 26 49 8 67 -8 8 -7 16
2 31 20 33 -12 62 -68 62 l-43 0 0 -85z m80 35 c0 -15 -7 -20 -25 -20 -18 0
-25 5 -25 20 0 15 7 20 25 20 18 0 25 -5 25 -20z m0 -55 c16 -19 4 -35 -26
-35 -19 0 -24 5 -24 25 0 29 29 35 50 10z"/>
<path d="M1300 336 c-20 -25 -8 -60 29 -78 47 -23 54 -33 38 -47 -15 -12 -47
-5 -47 10 0 5 -9 9 -20 9 -11 0 -20 -4 -20 -8 0 -18 38 -42 66 -42 76 0 87 62
17 95 -24 11 -43 25 -43 31 0 20 32 25 50 9 33 -30 55 -12 24 19 -19 20 -78
21 -94 2z"/>
<path d="M1440 325 c0 -8 -4 -15 -10 -15 -5 0 -10 -7 -10 -15 0 -8 4 -15 9
-15 6 0 11 -21 13 -47 3 -44 5 -48 31 -51 29 -4 37 12 12 22 -17 6 -21 76 -5
76 6 0 10 7 10 15 0 8 -4 15 -10 15 -5 0 -10 7 -10 15 0 8 -7 15 -15 15 -8 0
-15 -7 -15 -15z"/>
<path d="M840 290 c-24 -24 -26 -57 -4 -88 32 -45 104 -17 104 41 0 32 -32 67
-60 67 -11 0 -29 -9 -40 -20z m66 -35 c6 -24 -9 -55 -27 -55 -14 0 -28 36 -22
58 8 31 41 28 49 -3z"/>
<path d="M982 294 c-26 -18 -30 -74 -6 -98 19 -19 67 -21 82 -3 23 27 24 62 2
90 -24 31 -46 34 -78 11z m56 -48 c4 -36 -11 -54 -33 -36 -15 13 -20 51 -8 64
15 15 38 0 41 -28z"/>
<path d="M1532 294 c-26 -18 -30 -74 -6 -98 19 -19 67 -21 82 -3 23 27 24 62
2 90 -24 31 -46 34 -78 11z m56 -48 c4 -34 -8 -49 -31 -40 -17 6 -24 54 -10
68 15 15 38 0 41 -28z"/>
<path d="M1650 243 c0 -49 3 -63 15 -63 11 0 15 12 15 46 0 37 4 47 20 51 33
9 23 29 -15 29 l-35 0 0 -63z"/>
<path d="M1752 294 c-28 -20 -30 -74 -3 -98 22 -20 72 -18 79 2 3 9 -3 11 -20
7 -16 -4 -29 -1 -37 9 -12 14 -8 16 28 16 36 0 41 3 41 23 0 26 -28 57 -51 57
-8 0 -25 -7 -37 -16z m56 -31 c2 -8 -5 -13 -17 -13 -21 0 -35 13 -24 24 10 10
36 3 41 -11z"/>
</g>
</svg>
